<svg xmlns="http://www.w3.org/2000/svg" viewBox="0 0 900 700" role="img" aria-label="Model chip visual">
  <defs>
    <linearGradient id="chip-bg" x1="0" x2="1" y1="0" y2="1">
      <stop offset="0" stop-color="#11140f"/>
      <stop offset="0.55" stop-color="#263020"/>
      <stop offset="1" stop-color="#15323a"/>
    </linearGradient>
    <filter id="chip-glow" x="-30%" y="-30%" width="160%" height="160%">
      <feGaussianBlur stdDeviation="10" result="blur"/>
      <feMerge>
        <feMergeNode in="blur"/>
        <feMergeNode in="SourceGraphic"/>
      </feMerge>
    </filter>
  </defs>
  <rect width="900" height="700" fill="url(#chip-bg)"/>
  <g opacity="0.2" stroke="#f4f7ec" stroke-width="1">
    <path d="M0 110h900M0 220h900M0 330h900M0 440h900M0 550h900"/>
    <path d="M110 0v700M220 0v700M330 0v700M440 0v700M550 0v700M660 0v700M770 0v700"/>
  </g>
  <g transform="translate(260 160)" filter="url(#chip-glow)">
    <rect x="0" y="0" width="380" height="320" rx="18" fill="#151810" stroke="#c8ff00" stroke-width="8"/>
    <rect x="48" y="48" width="284" height="224" rx="8" fill="#24281f" stroke="#49d8ff" stroke-width="3"/>
    <path d="M78 108h140M78 154h240M78 200h180" stroke="#c8ff00" stroke-width="12" stroke-linecap="round"/>
    <circle cx="282" cy="104" r="30" fill="#ff8f3c"/>
    <circle cx="282" cy="204" r="30" fill="#49d8ff"/>
  </g>
  <g stroke="#c8ff00" stroke-width="6" stroke-linecap="round" opacity="0.85">
    <path d="M260 240H90M260 318H120M260 396H72M640 240h180M640 318h130M640 396h200"/>
    <path d="M350 160V66M450 160V88M550 160V52M350 480v86M450 480v112M550 480v76"/>
  </g>
</svg>
